<?xml version="1.0"?>
<svg xmlns="http://www.w3.org/2000/svg" xmlns:xlink="http://www.w3.org/1999/xlink" xmlns:svgjs="http://svgjs.com/svgjs" version="1.1" width="512" height="512" x="0" y="0" viewBox="0 0 74 74" style="enable-background:new 0 0 512 512" xml:space="preserve"><g><path xmlns="http://www.w3.org/2000/svg" d="m55.383 72c-8.962 0-22.14-7.065-34.188-19.113-16.33-16.333-23.507-34.741-16.339-41.909l7.491-7.49a4.814 4.814 0 0 1 6.8 0l10.417 10.419a4.813 4.813 0 0 1 0 6.8l-3.891 3.893c-2.2 2.2.237 9.543 7.253 16.558s14.355 9.454 16.558 7.253l3.891-3.891a4.807 4.807 0 0 1 6.8 0l10.42 10.419a4.813 4.813 0 0 1 0 6.8l-7.495 7.485a10.534 10.534 0 0 1 -7.717 2.776zm-39.637-67.919a2.8 2.8 0 0 0 -1.985.821l-7.49 7.49c-6.164 6.163 1.319 24.059 16.338 39.078s32.915 22.5 39.079 16.34l7.491-7.491a2.813 2.813 0 0 0 0-3.97l-10.42-10.419a2.875 2.875 0 0 0 -3.97 0l-3.889 3.891c-3.4 3.4-11.916.218-19.386-7.252s-10.658-15.985-7.255-19.387l3.891-3.891a2.811 2.811 0 0 0 0-3.97l-10.419-10.421a2.8 2.8 0 0 0 -1.985-.819z" fill="#ffffff" data-original="#000000" style=""/><path xmlns="http://www.w3.org/2000/svg" d="m16.97 3.907h2v22.35h-2z" transform="matrix(.707 -.707 .707 .707 -5.401 17.124)" fill="#ffffff" data-original="#000000" style=""/><path xmlns="http://www.w3.org/2000/svg" d="m57.999 44.935h2v22.349h-2z" transform="matrix(.707 -.707 .707 .707 -22.395 58.154)" fill="#ffffff" data-original="#000000" style=""/><path xmlns="http://www.w3.org/2000/svg" d="m69 36.08h-2a29.033 29.033 0 0 0 -29-29v-2a31.034 31.034 0 0 1 31 31z" fill="#ffffff" data-original="#000000" style=""/><path xmlns="http://www.w3.org/2000/svg" d="m60.725 36.08h-2a20.748 20.748 0 0 0 -20.725-20.725v-2a22.751 22.751 0 0 1 22.725 22.725z" fill="#ffffff" data-original="#000000" style=""/><path xmlns="http://www.w3.org/2000/svg" d="m52.448 36.96h-2a12.462 12.462 0 0 0 -12.448-12.448v-2a14.464 14.464 0 0 1 14.448 14.448z" fill="#ffffff" data-original="#000000" style=""/></g></svg>
